
**** Kick-Ass.2010.DVDRiP.x264.AC3.NORDIC.mkv.Zen_Bud ****


Format                           : Matroska
File size                        : 1.35 GiB
Duration                         : 1h 52mn
Overall bit rate                 : 1 720 Kbps
Writing application              : HandBrake svn3506
Writing library                  : libmkv 0.6.4.1

Video
Format                           : AVC
Duration                         : 1h 52mn
Bit rate                         : 1 238 Kbps
Width                            : 720 pixels
Height                           : 428 pixels
Display aspect ratio             : 2.35:1
Stream size                      : 997 MiB (72%)
Writing library                  : x264 core 104

Audio

Format                           : AC-3
Duration                         : 1h 52mn
Bit rate                         : 448 Kbps
Channel(s)                       : 6 channels
Channel positions                : Front: L C R, Side: L R, LFE
Sampling rate                    : 48.0 KHz
Bit depth                        : 16 bits
Stream size                      : 361 MiB (26%)
Language                         : English

Text #1
Language                         : Danish

Text #2
Language                         : Finnish

Text #3
Language                         : Norwegian

Text #4
Language                         : Swedish

Menu
00:00:00.000                     : Chapter  1
00:10:00.000                     : Chapter  2


